<svg xmlns="http://www.w3.org/2000/svg" height="800" width="1200" viewBox="-37.95075 -13.873675 328.9065 83.24205"><path d="M90.563 43.147h-.116L83.335 14.09h-8.366l-7.083 29.057h-.117L61.182 14.09h-8.803l11.076 40.681h8.307l7.316-27.807h.146l7.316 27.807h8.366l11.047-40.681H97.15zM195.7 13.434c-10.493 0-16.76 6.944-16.76 18.597v4.919c0 11.772 6.237 18.508 16.73 18.508 10.522 0 15.77-6.557 15.77-13.89v-.744h-7.899c0 4.202-2.041 7.48-7.725 7.48-5.713 0-8.511-3.606-8.511-11.354v-4.919c0-7.658 2.827-11.503 8.453-11.503 5.275 0 7.782 3.576 7.782 7.6h7.899v-.418c.001-7.928-5.887-14.276-15.739-14.276zm-76.426.656l-12.825 40.681h8.249l2.881-10.252h12.587l2.836 10.252h8.832L129.039 14.09zm.065 24.171l4.541-16.154h.087l4.468 16.154zM244.727 14.09v16.333h-16.265V14.09h-8.248v40.681h8.248V37.426h16.265v17.346h8.278V14.09zm-103.038 7.033h11.833v33.648h8.22V21.123h11.863V14.09h-31.916zM36.914 29.479c-.065-7.019 5.605-10.396 5.864-10.559-3.219-4.846-8.191-5.381-9.942-5.515-4.47-.336-8.259 2.554-10.375 2.554-2.146 0-5.455-2.481-8.964-2.414-4.606.071-8.852 2.738-11.226 6.958-4.785 8.495-1.222 21.076 3.438 27.964 2.28 3.37 4.998 7.163 8.57 7.024 3.438-.138 4.737-2.275 8.893-2.275 4.153 0 5.325 2.275 8.96 2.204 3.699-.066 6.044-3.432 8.306-6.822 2.62-3.906 3.696-7.688 3.76-7.893-.083-.028-7.214-2.826-7.284-11.226zM30.077 8.856C31.975 6.513 33.253 3.244 32.901 0c-2.732.109-6.034 1.861-7.994 4.201-1.754 2.077-3.296 5.401-2.878 8.586 3.046.239 6.152-1.585 8.048-3.931z" fill="#010202"/></svg>